<svg xmlns="http://www.w3.org/2000/svg" width="150" height="150" fill="none" xmlns:v="https://vecta.io/nano"><path d="M148 75c0 40.317-32.683 73-73 73S2 115.317 2 75 34.683 2 75 2s73 32.683 73 73z" stroke="#0082f4" stroke-width="4"/><path d="M89.407 75.253a42.48 42.48 0 0 0 12.299-14.921 42.46 42.46 0 0 0 4.409-18.827c0-.218-.087-.426-.24-.58a.82.82 0 0 0-.581-.24 42.34 42.34 0 0 0-26.058 8.961 42.95 42.95 0 0 0-7.67 7.722 4.08 4.08 0 0 1-2.608.576 4.09 4.09 0 0 1-2.407-1.159 5.71 5.71 0 0 0-8.072-.004l-8.125 8.006a.82.82 0 0 0 0 1.168l4.701 4.643a8.08 8.08 0 0 0 9.169 1.515l-.008.03a.82.82 0 0 0 .212.794l2.366 2.366-5.788 1.227a.82.82 0 0 0-.411 1.382l2.912 2.912a7.28 7.28 0 0 0-2.119-.851l-.706-.124a7.3 7.3 0 0 0-.868-.058 7.2 7.2 0 0 0-2.8.541c-.888.365-1.694.904-2.371 1.585a7.38 7.38 0 0 0-1.632 2.411c-.379.904-.572 1.875-.571 2.855a.82.82 0 0 0 .8.82l.619.016c-1.197 1.657-1.7 3.717-1.401 5.739a.82.82 0 0 0 .805.658h2.241a.82.82 0 1 0 0-1.64H54.01a6.26 6.26 0 0 1 2.203-4.919.82.82 0 0 0-.522-1.434l-1.553-.039a5.75 5.75 0 0 1 1.662-3.302 5.59 5.59 0 0 1 3.96-1.65h.043a5.67 5.67 0 0 1 .392.018c-.501.295-.927.702-1.245 1.189a3.78 3.78 0 0 0-.59 1.617l-.47 3.801a.82.82 0 0 0 .814.921.85.85 0 0 0 .101-.006l3.801-.471c.578-.071 1.131-.274 1.618-.593s.894-.746 1.189-1.248a5.71 5.71 0 0 1 .02.447 5.64 5.64 0 0 1-1.662 4.013.82.82 0 0 0-.008 1.168.82.82 0 0 0 1.168-.008 7.3 7.3 0 0 0 1.747-2.799c.361-1.054.477-2.176.338-3.282-.027-.229-.067-.461-.118-.692a7.28 7.28 0 0 0-.858-2.152l2.85 2.85a.82.82 0 0 0 1.376-.383l1.398-5.651 2.128 2.128a.82.82 0 0 0 .79.213l.147-.041a8.08 8.08 0 0 0 1.468 9.265l4.643 4.73a.85.85 0 0 0 .584.273.85.85 0 0 0 .584-.273l8.002-8.135a5.73 5.73 0 0 0 0-8.084c-.641-.647-1.048-1.489-1.157-2.394a4.09 4.09 0 0 1 .557-2.6zm15.059-32.92c-.05 2.495-.329 4.98-.833 7.424-2.774-1.537-5.064-3.817-6.613-6.584a40.65 40.65 0 0 1 7.446-.839zM56.207 69.428l-4.109-4.059 7.536-7.427a4.07 4.07 0 0 1 5.756 0 5.73 5.73 0 0 0 4.577 1.641 42.53 42.53 0 0 0-4.998 10.078 6.43 6.43 0 0 1-8.761-.234zm8.012 15.884a2.16 2.16 0 0 1-1.817 1.559l-2.756.342.342-2.755a2.18 2.18 0 0 1 1.611-1.832c.369-.094.756-.089 1.122.014s.699.301.965.573.455.61.549.979.089.756-.014 1.122l-.001-.001zm4.802-1.296l-6.197-6.197 5.353-1.135 2.131 2.13-1.286 5.202zm5.593-3.214l-8.689-8.689a39.47 39.47 0 0 1 .469-1.538l.015-.014-.008-.008A41.21 41.21 0 0 1 91.839 44.61l3.521-1.057a18.69 18.69 0 0 0 7.893 7.862C99.744 65.418 88.955 76.83 74.614 80.802zm14.228 6.357l-7.422 7.532-4.059-4.109a6.43 6.43 0 0 1-.141-8.863 42.16 42.16 0 0 0 9.985-4.895 5.73 5.73 0 0 0 1.642 4.576c.763.765 1.191 1.801 1.19 2.881s-.43 2.116-1.194 2.879h0zM61.083 92.62a5.7 5.7 0 0 1-1.328.153h-1.292a.82.82 0 1 0 0 1.64h1.292c.575.001 1.149-.066 1.709-.199a.82.82 0 1 0-.382-1.596h.001zm33.011-16.948a.82.82 0 0 0 .523-.188l1.723-1.507a.82.82 0 0 0 .052-1.164.82.82 0 0 0-1.165-.041L93.57 74.22a.82.82 0 0 0 .524 1.452h.001zm13.548-21.606a.82.82 0 0 0-.624.062.85.85 0 0 0-.248.203.82.82 0 0 0-.15.282 40.63 40.63 0 0 1-2.661 6.626l-1.261 2.296-1.75 2.707a41.06 41.06 0 0 1-3.183 3.972.82.82 0 1 0 1.214 1.104 42.68 42.68 0 0 0 3.31-4.132l1.82-2.815 1.312-2.388a42.26 42.26 0 0 0 2.769-6.894c.063-.208.04-.433-.062-.625a.82.82 0 0 0-.486-.398zM42.87 74.249a.82.82 0 0 0 .314-.062c.099-.041.19-.102.266-.178l.628-.628a.82.82 0 0 0-1.16-1.16l-.629.628a.82.82 0 0 0 .58 1.4h.001zm2.99-2.65l2.807-2.807a.82.82 0 0 0 .178-.266.84.84 0 0 0 .063-.314.82.82 0 0 0-.82-.82.82.82 0 0 0-.58.24L44.7 70.439a.82.82 0 0 0-.005 1.164.82.82 0 0 0 1.165-.005zm-2.334 5.476a.82.82 0 0 0 1.16 0l3.299-3.3a.82.82 0 0 0 0-1.16.82.82 0 0 0-1.16 0l-3.299 3.299a.82.82 0 0 0 0 1.16zm5.492-4.673a.82.82 0 0 0 .58-.24l1.22-1.22a.82.82 0 0 0 .005-1.164.82.82 0 0 0-1.164.005l-1.22 1.22a.82.82 0 0 0 .58 1.4zm-3.358 5.681l-3.645 3.645a.82.82 0 0 0 1.16 1.16l3.645-3.645a.82.82 0 0 0 .005-1.164.82.82 0 0 0-1.164.005h0zm7.309-6.149a.82.82 0 0 0-1.16 0l-4.27 4.269a.82.82 0 0 0-.005 1.164.82.82 0 0 0 1.164-.005l4.27-4.27a.82.82 0 0 0 0-1.159zM69.107 98.41l-.629.628a.82.82 0 1 0 1.16 1.16l.628-.629a.82.82 0 1 0-1.16-1.16v.001zm4.589-4.589l-2.807 2.807a.82.82 0 0 0-.008 1.168.82.82 0 0 0 1.168-.008l2.807-2.807a.82.82 0 1 0-1.16-1.16zm-3.982 9.443a.82.82 0 0 0 1.16 0l3.3-3.299a.82.82 0 0 0 .008-1.168.81.81 0 0 0-.269-.179.82.82 0 0 0-.899.187l-3.3 3.299a.82.82 0 0 0 0 1.16zm4.913-4.912a.82.82 0 0 0 1.16 0l1.22-1.22a.82.82 0 1 0-1.16-1.16l-1.22 1.22a.82.82 0 0 0 0 1.16zm-2.778 5.919l-3.645 3.645a.82.82 0 0 0-.245.581c-.001.109.02.216.062.316a.85.85 0 0 0 .178.268c.076.077.167.137.268.178s.207.063.316.062a.81.81 0 0 0 .315-.064.82.82 0 0 0 .266-.181l3.645-3.644c.077-.076.139-.167.181-.267a.82.82 0 0 0 .064-.315.84.84 0 0 0-.062-.316c-.041-.101-.102-.191-.178-.267a.83.83 0 0 0-.268-.179c-.101-.042-.207-.062-.316-.062a.83.83 0 0 0-.315.065.82.82 0 0 0-.266.18zm6.148-6.148l-4.27 4.269a.82.82 0 0 0-.245.582c0 .108.021.216.062.316s.102.191.178.267a.81.81 0 0 0 .268.179.83.83 0 0 0 .316.062.83.83 0 0 0 .315-.065.82.82 0 0 0 .266-.18l4.27-4.27a.82.82 0 0 0 .005-1.164.82.82 0 0 0-1.165.005zm23.229-9.956c-.672-.227-1.283-.607-1.785-1.11a4.6 4.6 0 0 1-1.105-1.788.82.82 0 0 0-1.556 0 4.6 4.6 0 0 1-2.89 2.898.82.82 0 0 0 0 1.556 4.6 4.6 0 0 1 2.89 2.898.82.82 0 0 0 1.556 0 4.6 4.6 0 0 1 2.889-2.898.82.82 0 0 0 .406-.299c.1-.14.154-.307.154-.479a.82.82 0 0 0-.56-.778zm-3.668 2.376a6.28 6.28 0 0 0-1.595-1.598 6.28 6.28 0 0 0 1.595-1.598 6.28 6.28 0 0 0 1.595 1.598 6.28 6.28 0 0 0-1.595 1.598zM43.031 56.774a4.59 4.59 0 0 1 1.785 1.11 4.6 4.6 0 0 1 1.105 1.788.82.82 0 0 0 1.556 0 4.6 4.6 0 0 1 2.889-2.898.82.82 0 0 0 0-1.556 4.6 4.6 0 0 1-1.785-1.11c-.501-.503-.879-1.115-1.105-1.788a.82.82 0 0 0-1.556 0 4.6 4.6 0 0 1-1.105 1.788 4.59 4.59 0 0 1-1.785 1.11.82.82 0 0 0 0 1.556zm3.668-2.376a6.28 6.28 0 0 0 1.595 1.598 6.28 6.28 0 0 0-1.595 1.598 6.28 6.28 0 0 0-1.595-1.598 6.28 6.28 0 0 0 1.595-1.598zm10.67-5.511c.829 0 1.502-.673 1.502-1.504s-.672-1.504-1.502-1.504-1.502.673-1.502 1.504.672 1.504 1.502 1.504zm37.597 53.457c.829 0 1.502-.674 1.502-1.504s-.672-1.504-1.502-1.504-1.502.673-1.502 1.504.672 1.504 1.502 1.504zm-8.927-47.583c-.986.001-1.956.244-2.826.709a5.99 5.99 0 0 0-2.158 1.957c-.548.82-.884 1.762-.981 2.743s.05 1.971.428 2.882.973 1.714 1.735 2.34 1.666 1.053 2.633 1.246a5.99 5.99 0 0 0 2.91-.142c.944-.286 1.802-.8 2.499-1.496a6 6 0 0 0-.909-9.229 6 6 0 0 0-3.332-1.011h0zm3.081 9.079a4.36 4.36 0 0 1-6.705-.66c-.479-.717-.734-1.559-.734-2.421s.256-1.704.734-2.421a4.35 4.35 0 0 1 1.956-1.605 4.36 4.36 0 0 1 4.749 7.107z" fill="#0082f4"/></svg>