<svg xmlns="http://www.w3.org/2000/svg" width="150" height="150" fill="none" xmlns:v="https://vecta.io/nano"><circle cx="75" cy="75" r="73" stroke="#0082f4" stroke-width="4"/><g clip-path="url(#A)" fill="#0082f4"><path d="M107.179 66.063H73.456V45.259a2.77 2.77 0 0 0-2.768-2.768h-8.851c-1.344-1.242-3.139-2.002-5.109-2.002s-3.765.761-5.11 2.002h-8.851A2.77 2.77 0 0 0 40 45.259v37.953a2.77 2.77 0 0 0 2.768 2.768h17.169v20.712c0 1.555 1.266 2.821 2.821 2.821h44.421c1.556 0 2.821-1.266 2.821-2.821V68.884c0-1.555-1.265-2.821-2.821-2.821zm-28.372 3.368h12.324v21.481l-5.58-2.056a1.69 1.69 0 0 0-1.164 0l-5.58 2.056V69.431h0zM56.728 43.856c2.222 0 4.044 1.748 4.163 3.941h-8.326c.119-2.193 1.941-3.941 4.163-3.941zm-13.36 2.002h6.142a7.5 7.5 0 0 0-.313 1.939h-3.279c-.93 0-1.684.754-1.684 1.684s.754 1.684 1.684 1.684h21.621c.93 0 1.684-.754 1.684-1.684s-.754-1.684-1.684-1.684H64.26a7.51 7.51 0 0 0-.313-1.939h6.142v36.753h-26.72V45.859zm63.264 60.285H63.305V85.98h7.383a2.77 2.77 0 0 0 2.768-2.768V69.431h1.983v23.896a1.68 1.68 0 0 0 1.684 1.684 1.68 1.68 0 0 0 .582-.104l7.264-2.676 7.264 2.676c.517.19 1.094.116 1.545-.199s.721-.831.721-1.381V69.431h12.134v36.713h0zm-44.27-44.038l-8.204 8.203-3.063-3.063c-.658-.658-1.724-.658-2.382 0s-.658 1.724 0 2.382l4.254 4.254c.316.316.744.493 1.191.493s.875-.177 1.191-.493l9.394-9.394c.658-.658.658-1.724 0-2.381s-1.724-.658-2.381 0z"/></g><defs><clipPath id="A"><path fill="#fff" transform="translate(40 40)" d="M0 0h70v70H0z"/></clipPath></defs></svg>