<svg xmlns="http://www.w3.org/2000/svg" width="31" height="31" fill="none" xmlns:v="https://vecta.io/nano"><path d="M23.25 0H7.75A7.75 7.75 0 0 0 0 7.75v15.5A7.75 7.75 0 0 0 7.75 31h15.5A7.75 7.75 0 0 0 31 23.25V7.75A7.75 7.75 0 0 0 23.25 0z" fill="#fff"/><path d="M21.7 14.524a6.2 6.2 0 0 1-3.345 6.448 6.2 6.2 0 0 1-7.172-1.154 6.2 6.2 0 0 1-1.154-7.171A6.2 6.2 0 0 1 16.477 9.3a6.2 6.2 0 0 1 5.223 5.224z" fill="#c3c3c3"/><path d="M24.025 6.975h.016" stroke="#c3c3c3" stroke-width="2" stroke-linecap="round" stroke-linejoin="round"/></svg>