<svg xmlns="http://www.w3.org/2000/svg" width="150" height="150" fill="none" xmlns:v="https://vecta.io/nano"><circle cx="75" cy="75" r="73" stroke="#0082f4" stroke-width="4"/><path d="M107.762 61.746l-4.902-8.492a1.17 1.17 0 0 0-1.452-.5l-7.217 2.913a1.17 1.17 0 1 0 .876 2.171l6.274-2.533 3.885 6.73-5.323 4.162a1.17 1.17 0 0 0-.398 1.266c1.474 4.8 1.531 10.09 0 15.074a1.17 1.17 0 0 0 .398 1.266l5.323 4.162-3.885 6.73-6.274-2.533a1.17 1.17 0 0 0-1.295.288c-3.523 3.789-8.034 6.395-13.045 7.539a1.17 1.17 0 0 0-.899.978l-.942 6.692h-7.771l-.942-6.692a1.17 1.17 0 0 0-.899-.978c-5.011-1.143-9.521-3.75-13.045-7.539a1.17 1.17 0 0 0-1.295-.288l-6.274 2.532-3.886-6.73 5.324-4.162a1.17 1.17 0 0 0 .398-1.266c-1.474-4.8-1.531-10.09 0-15.074a1.17 1.17 0 0 0-.398-1.266l-5.324-4.162 3.886-6.73 6.274 2.533a1.17 1.17 0 0 0 1.295-.288c3.524-3.789 8.034-6.395 13.045-7.539a1.17 1.17 0 0 0 .899-.978l.942-6.692h7.771l.942 6.692a1.17 1.17 0 0 0 .899.978 25.42 25.42 0 0 1 7.751 3.184 1.17 1.17 0 0 0 1.233-1.99 27.77 27.77 0 0 0-7.675-3.285l-.974-6.913A1.17 1.17 0 0 0 79.903 40h-9.806a1.17 1.17 0 0 0-1.159 1.007l-.974 6.913c-4.895 1.267-9.323 3.826-12.891 7.45l-6.481-2.616a1.17 1.17 0 0 0-1.452.5l-4.903 8.492a1.17 1.17 0 0 0 .293 1.507l5.5 4.3c-1.338 4.856-1.338 10.037 0 14.893l-5.5 4.3a1.17 1.17 0 0 0-.293 1.507l4.903 8.492a1.17 1.17 0 0 0 1.452.5l6.481-2.616a27.82 27.82 0 0 0 12.891 7.45l.974 6.913A1.17 1.17 0 0 0 70.097 110h9.806a1.17 1.17 0 0 0 1.159-1.007l.974-6.914a27.81 27.81 0 0 0 12.891-7.449l6.482 2.617a1.17 1.17 0 0 0 1.452-.5l4.902-8.492a1.17 1.17 0 0 0-.292-1.507l-5.501-4.3a28.12 28.12 0 0 0 0-14.893l5.501-4.3a1.17 1.17 0 0 0 .292-1.507zm-34.679 7.686l5.852 9.949a1.17 1.17 0 0 1-2.018 1.187l-5.852-9.949a1.17 1.17 0 1 1 2.018-1.187zm-4.57 10.055a1.17 1.17 0 0 1-1.655 0l-3.659-3.659a1.17 1.17 0 0 1 0-1.655l3.659-3.66a1.17 1.17 0 1 1 1.655 1.655L65.68 75l2.832 2.832a1.17 1.17 0 0 1 0 1.656zm13.657-9.317c.299 0 .599.114.828.343l3.659 3.66a1.17 1.17 0 0 1 0 1.655l-3.659 3.66a1.17 1.17 0 1 1-1.655-1.655L84.173 75l-2.832-2.832c-.74-.74-.206-1.998.828-1.998zM68.15 56.318c2.234-.819 4.55-1.227 6.861-1.227 14.459.001 24.149 15.098 18.042 28.275-4.614 9.954-16.465 14.3-26.42 9.686-12.655-5.865-15.525-22.729-5.403-32.423a1.17 1.17 0 1 1 1.619 1.691c-8.925 8.548-6.404 23.431 4.768 28.609 8.784 4.071 19.241.237 23.312-8.547s.237-19.241-8.547-23.312a17.44 17.44 0 0 0-13.427-.555 1.17 1.17 0 0 1-.805-2.198z" fill="#0082f4"/></svg>