<svg xmlns="http://www.w3.org/2000/svg" width="40" height="29" fill="none" xmlns:v="https://vecta.io/nano"><path d="M38.205 5.226a4.87 4.87 0 0 0-1.211-2.202 4.79 4.79 0 0 0-2.139-1.291C31.883 1 20 1 20 1S8.117 1 5.146 1.803a4.79 4.79 0 0 0-2.139 1.291 4.87 4.87 0 0 0-1.211 2.202c-.544 3.049-.81 6.141-.794 9.239-.019 3.121.247 6.237.795 9.309.226.803.653 1.534 1.24 2.121a4.79 4.79 0 0 0 2.11 1.232C8.117 28 20 28 20 28s11.883 0 14.854-.803a4.79 4.79 0 0 0 2.139-1.291 4.87 4.87 0 0 0 1.211-2.201 51.2 51.2 0 0 0 .794-9.169c.019-3.121-.247-6.237-.794-9.309z" fill="#fff" stroke="#fff" stroke-linejoin="round"/><path d="M15 19.57l9.293-5.268-9.278-5.294L15 19.57z" fill="#c3c3c3"/></svg>